HIERARCHY
ROOT Hips
{
  OFFSET 0.0 0.0 0.0
  CHANNELS 6 Xposition Yposition Zposition Zrotation Yrotation Xrotation
  JOINT LHipJoint
  {
    OFFSET 0.0 0.0 0.0
    CHANNELS 3 Zrotation Yrotation Xrotation
    JOINT LeftUpLeg
    {
      OFFSET 1.363059998 -1.794630051 0.839290023
      CHANNELS 3 Zrotation Yrotation Xrotation
      JOINT LeftLeg
      {
        OFFSET 2.448110104 -6.726130009 0.0
        CHANNELS 3 Zrotation Yrotation Xrotation
        JOINT LeftFoot
        {
          OFFSET 2.562200069 -7.039589882 0.0
          CHANNELS 3 Zrotation Yrotation Xrotation
          JOINT LeftToeBase
          {
            OFFSET 0.157639995 -0.433109999 2.322550058
            CHANNELS 3 Zrotation Yrotation Xrotation
            End Site
            {
              OFFSET 0.0 -0.0 1.189659953
            }
          }
        }
      }
    }
  }
  JOINT RHipJoint
  {
    OFFSET 0.0 0.0 0.0
    CHANNELS 3 Zrotation Yrotation Xrotation
    JOINT RightUpLeg
    {
      OFFSET -1.305520058 -1.794630051 0.839290023
      CHANNELS 3 Zrotation Yrotation Xrotation
      JOINT RightLeg
      {
        OFFSET -2.54253006 -6.985549927 0.0
        CHANNELS 3 Zrotation Yrotation Xrotation
        JOINT RightFoot
        {
          OFFSET -2.568259954 -7.056230068 0.0
          CHANNELS 3 Zrotation Yrotation Xrotation
          JOINT RightToeBase
          {
            OFFSET -0.164729998 -0.452589989 2.363149881
            CHANNELS 3 Zrotation Yrotation Xrotation
            End Site
            {
              OFFSET -0.0 -0.0 1.21081996
            }
          }
        }
      }
    }
  }
  JOINT LowerBack
  {
    OFFSET 0.0 0.0 0.0
    CHANNELS 3 Zrotation Yrotation Xrotation
    JOINT Spine
    {
      OFFSET 0.028270001 2.035589933 -0.193379998
      CHANNELS 3 Zrotation Yrotation Xrotation
      JOINT Spine1
      {
        OFFSET 0.05672 2.04885006 -0.042750001
        CHANNELS 3 Zrotation Yrotation Xrotation
        JOINT Neck
        {
          OFFSET 0.0 0.0 0.0
          CHANNELS 3 Zrotation Yrotation Xrotation
          JOINT Neck1
          {
            OFFSET -0.054170001 1.74624002 0.172020003
            CHANNELS 3 Zrotation Yrotation Xrotation
            JOINT Head
            {
              OFFSET 0.10407 1.761360049 -0.123970002
              CHANNELS 3 Zrotation Yrotation Xrotation
              End Site
              {
                OFFSET 0.0372 1.770439982 -0.062410001
              }
            }
          }
        }
        JOINT LeftShoulder
        {
          OFFSET 0.0 0.0 0.0
          CHANNELS 3 Zrotation Yrotation Xrotation
          JOINT LeftArm
          {
            OFFSET 3.362410069 1.200889945 -0.311210006
            CHANNELS 3 Zrotation Yrotation Xrotation
            JOINT LeftForeArm
            {
              OFFSET 4.982999802 -0.0 -0.0
              CHANNELS 3 Zrotation Yrotation Xrotation
              JOINT LeftHand
              {
                OFFSET 3.483560085 -0.0 -0.0
                CHANNELS 3 Zrotation Yrotation Xrotation
                JOINT LeftFingerBase
                {
                  OFFSET 0.0 0.0 0.0
                  CHANNELS 3 Zrotation Yrotation Xrotation
                  JOINT LeftHandIndex1
                  {
                    OFFSET 0.715260029 -0.0 -0.0
                    CHANNELS 3 Zrotation Yrotation Xrotation
                    End Site
                    {
                      OFFSET 0.576659977 -0.0 -0.0
                    }
                  }
                }
                JOINT LThumb
                {
                  OFFSET 0.0 0.0 0.0
                  CHANNELS 3 Zrotation Yrotation Xrotation
                  End Site
                  {
                    OFFSET 0.585470021 -0.0 0.585470021
                  }
                }
              }
            }
          }
        }
        JOINT RightShoulder
        {
          OFFSET 0.0 0.0 0.0
          CHANNELS 3 Zrotation Yrotation Xrotation
          JOINT RightArm
          {
            OFFSET -3.136600018 1.374050021 -0.404650003
            CHANNELS 3 Zrotation Yrotation Xrotation
            JOINT RightForeArm
            {
              OFFSET -5.241899967 -0.0 -0.0
              CHANNELS 3 Zrotation Yrotation Xrotation
              JOINT RightHand
              {
                OFFSET -3.444169998 -0.0 -0.0
                CHANNELS 3 Zrotation Yrotation Xrotation
                JOINT RightFingerBase
                {
                  OFFSET 0.0 0.0 0.0
                  CHANNELS 3 Zrotation Yrotation Xrotation
                  JOINT RightHandIndex1
                  {
                    OFFSET -0.622529984 -0.0 -0.0
                    CHANNELS 3 Zrotation Yrotation Xrotation
                    End Site
                    {
                      OFFSET -0.501900017 -0.0 -0.0
                    }
                  }
                }
                JOINT RThumb
                {
                  OFFSET 0.0 0.0 0.0
                  CHANNELS 3 Zrotation Yrotation Xrotation
                  End Site
                  {
                    OFFSET -0.509559989 -0.0 0.509559989
                  }
                }
              }
            }
          }
        }
      }
    }
  }
}
MOTION
Frames: 6
Frame Time: 0.0083333
0.0 17.374700546 0.0 -51.772289276 79.316085815 -65.459007263 0.0 -0.0 0.0 -5.037000656 -5.322500229 -5.995000362 5.571201324 13.999502182 43.235301971 0.228700086 -6.312900066 -8.969201088 0.610400021 -5.000499249 -13.909996986 0.0 -0.0 0.0 28.241703033 -2.606300592 2.122999907 -4.315298557 -12.568598747 37.774391174 -0.724300086 -3.660400391 -17.814304352 -0.0462 -1.386800528 3.813699722 7.644100189 0.429500312 15.481899261 5.786799908 3.119999886 -4.334701061 1.308300257 1.214300156 -13.618303299 -15.227797508 -3.54919982 9.766498566 8.95249939 -6.215198994 8.10519886 5.256399632 -3.388299942 1.597499847 0.0 -0.0 0.0 55.876499176 -15.522707939 -80.346496582 64.00579071 -57.286190033 -37.693492889 0.0 -0.0 0.881799877 32.793193817 6.995399952 4.486699581 -7.125 0.0 0.0 5.174499512 38.237293243 -0.864499867 0.0 -0.0 0.0 -54.396305084 24.167795181 -93.266098022 -122.794685364 55.518016815 -87.973693848 0.0 0.0 -1.297899961 -37.752296448 -33.723293304 23.263000488 7.125 -0.0 0.0 -8.101202011 -69.998703003 4.852502823 
0.001699924 17.13120079 -0.001899719 -52.700080872 80.150001526 -65.191963196 0.0 -0.0 0.0 -5.648200512 -4.916200638 -8.061398506 6.092098713 14.517002106 45.350395203 0.635899842 -6.98170042 -14.303998947 0.384000063 -3.979399681 -11.018801689 0.0 -0.0 0.0 27.828802109 -1.905300021 0.137999877 -4.903300285 -13.274100304 40.403396606 -1.279999852 -3.239999771 -22.758495331 -0.086799972 -1.900599837 5.231098652 6.703699112 0.344700068 16.175300598 5.818499565 2.914399624 -4.557900429 1.93299973 1.182499766 -14.351099968 -16.718500137 -3.154499292 10.612599373 9.854102135 -5.976301193 7.120300293 5.809900761 -3.311499834 1.210999966 0.0 -0.0 0.0 55.276103973 -15.839396477 -80.512306213 70.326393127 -58.485805511 -43.048694611 0.0 0.0 -2.233799458 35.370697021 3.47699976 2.465299845 -7.125 0.0 0.0 7.198101044 34.173305511 -1.924900532 0.0 -0.0 0.0 -55.167110443 24.603197098 -93.713401794 -124.827484131 54.879886627 -89.642982483 0.0 -0.0 0.632600009 -41.885211945 -32.557006836 25.761707306 7.125 -0.0 0.0 -15.502605438 -70.034805298 9.35370636 
-0.006800056 16.88999939 -0.006999969 -54.126163483 81.046302795 -65.773979187 0.0 -0.0 0.0 -6.401500225 -5.161399364 -10.196599007 6.662797928 15.041298866 47.587303162 0.954800248 -7.040501118 -17.447303772 0.247300044 -3.200300217 -8.836801529 0.0 -0.0 0.0 27.439002991 -1.285999894 -1.546800137 -5.482899666 -13.907797813 42.869194031 -1.746300101 -3.92110014 -26.625999451 -0.081299983 -1.839600086 5.062599659 6.571099758 1.175300002 16.813098907 4.301299095 3.737000227 -4.071400166 0.044999987 1.456699967 -14.017801285 -12.326803207 -4.761000156 10.374500275 8.919700623 -7.591499329 5.312800884 4.818999767 -4.006299496 0.72209996 0.0 -0.0 0.0 57.352191925 -16.72019577 -83.171089172 80.537582397 -59.658992767 -51.814685822 0.0 0.0 -5.797300339 37.614704132 -0.868300021 -0.668899953 -7.125 0.0 0.0 8.589597702 28.83839798 -3.416200399 0.0 -0.0 0.0 -52.172904968 21.677293777 -91.708404541 -127.270004272 54.038890839 -91.630607605 0.0 -0.0 2.962800026 -45.968597412 -31.904306412 28.664493561 7.125 -0.0 0.0 -23.201107025 -70.594604492 14.425310135 
-0.015200019 16.715799332 -0.009599686 -54.810386658 81.977966309 -66.08908844 0.0 -0.0 0.0 -7.302797318 -6.15889883 -11.547000885 7.254099846 15.542198181 49.828903198 1.189599514 -7.775500298 -19.498195648 0.028899997 -1.097300053 -3.016700029 0.0 -0.0 0.0 26.942403793 -0.567499876 -3.071100235 -6.232799053 -14.650197983 45.908996582 -2.166800261 -4.647800446 -29.770298004 -0.067299999 -1.673300028 4.603499889 6.017701626 1.442299962 18.004301071 3.519200563 3.909100533 -3.671201468 -0.609600067 1.516700149 -14.218300819 -11.362799644 -5.206900597 10.925900459 9.201099396 -8.09969902 3.581600189 4.798599243 -4.258199692 0.14760007 0.0 -0.0 0.0 58.509414673 -16.554300308 -83.057525635 88.559028625 -59.9921875 -58.752128601 0.0 0.0 -10.164299965 44.342891693 3.855399847 3.759699106 -7.125 0.0 0.0 14.651801109 35.045303345 -3.68239975 0.0 -0.0 0.0 -50.743888855 20.266189575 -90.718795776 -129.195617676 53.314796448 -93.182106018 0.0 -0.0 4.907599926 -49.568702698 -30.978904724 31.137302399 7.125 -0.0 0.0 -30.326713562 -70.659423828 19.131916046 
-0.02700007 16.52809906 -0.009699821 -53.90473938 83.099937439 -64.784057617 0.0 -0.0 0.0 -8.38619709 -7.273898125 -13.269094467 7.992400646 16.113706589 52.535404205 1.381799698 -8.33920002 -21.036697388 0.0001 -0.063500017 -0.174500003 0.0 -0.0 0.0 26.105495453 0.265500069 -4.968500137 -7.168699265 -15.472303391 49.509410858 -2.268100262 -7.24230051 -31.756196976 -0.0017 0.262800008 -0.722200036 4.697100639 1.677399874 18.950105667 3.104700089 3.881800175 -3.283900499 -0.357199997 1.579699993 -14.371196747 -10.088397026 -5.700099468 11.445697784 9.51830101 -8.594599724 1.975000262 4.748198986 -4.511200428 -0.40049994 0.0 -0.0 0.0 59.755794525 -16.839494705 -84.007514954 92.430900574 -59.977706909 -62.10509491 0.0 0.0 -8.797100067 45.747009277 1.039600015 1.066800117 -7.125 0.0 0.0 15.207199097 31.235797882 -5.282300472 0.0 -0.0 0.0 -50.137992859 19.635402679 -90.234596252 -130.61000061 52.746513367 -94.312202454 0.0 -0.0 6.782599926 -52.409397125 -30.620397568 33.489700317 7.125 -0.0 0.0 -36.577495575 -71.088798523 23.716598511 
-0.047000051 16.356899261 -0.009699821 -55.918861389 84.295967102 -66.335075378 0.0 -0.0 0.0 -9.3416996 -8.070500374 -15.586799622 8.820101738 16.690601349 55.465896606 1.536900282 -6.850699902 -22.206497192 0.195199996 -2.844800234 -7.847000599 0.0 -0.0 0.0 25.134599686 1.426299691 -7.333999157 -8.30879879 -16.34180069 53.667602539 -2.695199966 -6.167299271 -33.643795013 -0.017199999 -0.845700026 2.324199677 3.218899727 1.718199968 19.442800522 2.989800453 3.548500061 -2.688899755 0.435800046 1.54940021 -14.046700478 -10.32420063 -5.820800304 11.88380146 10.619599342 -8.745597839 0.433200032 5.175599098 -4.629300117 -0.856599808 0.0 -0.0 0.0 59.004489899 -16.983896255 -84.093292236 99.016029358 -59.690593719 -67.800033569 0.0 0.0 -7.424500465 46.509300232 -1.862499714 -1.962200046 -7.125 0.0 0.0 15.156599998 27.173601151 -6.78480196 0.0 -0.0 0.0 -49.794799805 19.495409012 -90.238708496 -132.635803223 51.875495911 -95.915397644 0.0 -0.0 8.661399841 -54.527908325 -29.767801285 34.867507935 7.125 -0.0 0.0 -40.853694916 -70.736289978 26.459291458 
